<svg width="26" height="26" viewBox="0 0 26 26" fill="none" xmlns="http://www.w3.org/2000/svg">
<path fill-rule="evenodd" clip-rule="evenodd" d="M14.184 0.974609C13.6364 0.974609 13.1926 1.41847 13.1926 1.96599C13.1926 2.51351 13.6364 2.95737 14.184 2.95737C15.4425 2.95737 16.6886 3.20525 17.8514 3.68686C19.0141 4.16846 20.0705 4.87437 20.9604 5.76426C21.8503 6.65416 22.5562 7.71061 23.0378 8.87332C23.5194 10.036 23.7673 11.2822 23.7673 12.5407C23.7673 13.0882 24.2112 13.5321 24.7587 13.5321C25.3062 13.5321 25.7501 13.0882 25.7501 12.5407C25.7501 11.0218 25.4509 9.51781 24.8696 8.11455C24.2884 6.71129 23.4364 5.43625 22.3624 4.36224C21.2884 3.28823 20.0134 2.43628 18.6101 1.85503C17.2069 1.27378 15.7028 0.974609 14.184 0.974609ZM24.7587 23.1154V20.9398C24.7587 19.8587 24.1005 18.8866 23.0968 18.4852L20.408 17.4096C19.1314 16.899 17.6765 17.4522 17.0616 18.6819L16.8276 19.1499C16.8276 19.1499 13.523 18.489 10.8794 15.8453C8.23569 13.2016 7.57477 9.89702 7.57477 9.89702L8.04273 9.66305C9.27252 9.04815 9.82567 7.59324 9.31503 6.31663L8.23951 3.62783C7.83803 2.62414 6.86593 1.96599 5.78491 1.96599H3.60925C2.14919 1.96599 0.965576 3.1496 0.965576 4.60967C0.965576 16.2902 10.4345 25.7591 22.115 25.7591C23.5751 25.7591 24.7587 24.5755 24.7587 23.1154ZM13.1926 7.25335C13.1926 6.70582 13.6364 6.26197 14.184 6.26197C15.0085 6.26197 15.825 6.42437 16.5867 6.73991C17.3485 7.05544 18.0407 7.51793 18.6237 8.10097C19.2067 8.684 19.6692 9.37616 19.9848 10.1379C20.3003 10.8997 20.4627 11.7162 20.4627 12.5407C20.4627 13.0882 20.0188 13.5321 19.4713 13.5321C18.9238 13.5321 18.4799 13.0882 18.4799 12.5407C18.4799 11.9765 18.3688 11.4179 18.1529 10.8967C17.937 10.3755 17.6206 9.90191 17.2217 9.50299C16.8228 9.10407 16.3492 8.78763 15.828 8.57174C15.3068 8.35584 14.7481 8.24472 14.184 8.24472C13.6364 8.24472 13.1926 7.80087 13.1926 7.25335Z" fill="#29A624"/>
</svg>
