<svg width="42" height="42" viewBox="0 0 42 42" fill="none" xmlns="http://www.w3.org/2000/svg">
<circle opacity="0.1" cx="21" cy="21" r="21" fill="white"/>
<path fill-rule="evenodd" clip-rule="evenodd" d="M14.1401 12C11.931 12 10.1401 13.7909 10.1401 16V26C10.1401 28.2091 11.931 30 14.1401 30H27.86C30.0691 30 31.86 28.2091 31.86 26V16C31.86 13.7909 30.0691 12 27.86 12H14.1401ZM24.2112 20.1056L19.4473 17.7236C18.7824 17.3912 18.0001 17.8747 18.0001 18.618V23.382C18.0001 24.1253 18.7824 24.6088 19.4473 24.2764L24.2112 21.8944C24.9483 21.5259 24.9483 20.4741 24.2112 20.1056Z" fill="#F7F8FB"/>
</svg>
